<svg width="377" height="59" viewBox="0 0 377 59" fill="none" xmlns="http://www.w3.org/2000/svg">
<path fill-rule="evenodd" clip-rule="evenodd" d="M5.32042 58.2134L0 4.4772H31.5165L30.49 14.8455H53.4357L53.3582 16.4926C55.9923 14.6803 58.9487 13.7458 62.1589 13.7458C66.8228 13.7458 70.7849 15.7644 73.9156 19.4532C75.1301 20.8605 76.0999 22.4125 76.8381 24.0941L77.6918 14.8455H81.3438C81.7524 10.8992 83.0062 7.48876 85.3523 4.86979L85.3548 4.8671C88.5056 1.35816 93.4422 0 99.2627 0C101.965 0 104.576 0.382485 107.082 1.15831L108.998 1.75122L110.594 15.8321L108.462 15.2634L109.421 25.6531C110.521 23.1006 112.113 20.9108 114.255 19.1551L114.257 19.1537C118.766 15.4485 124.598 13.7458 131.44 13.7458C138.272 13.7458 144.083 15.4441 148.546 19.1553C153.326 23.0292 155.401 29.0241 155.401 36.3723C155.401 43.7338 153.319 49.7448 148.547 53.6667L148.544 53.6696C144.079 57.3284 138.269 58.9989 131.44 58.9989C124.607 58.9989 118.782 57.3274 114.273 53.6827L114.255 53.6682L114.237 53.6535C109.526 49.7273 107.478 43.7206 107.478 36.3723C107.478 34.56 107.602 32.8298 107.861 31.1931H104.242L103.064 58.2134H82.7366L81.5584 31.1931H78.5643C78.6275 31.9609 78.6588 32.745 78.6588 33.5446C78.6588 38.666 78.0362 46.0211 76.8277 55.5319L76.4869 58.2134H57.2316L55.4122 37.8361C55.412 37.8339 55.4118 37.8317 55.4116 37.8296C55.1632 35.1766 54.7026 33.5664 54.238 32.7093C54.0707 32.4005 53.9423 32.264 53.8876 32.2144C53.6646 32.2176 53.58 32.2653 53.5444 32.2872C53.4948 32.3178 53.3434 32.4271 53.1465 32.7757C52.7072 33.5535 52.2853 35.0877 52.1865 37.7338C52.1864 37.7367 52.1863 37.7397 52.1862 37.7427L51.5437 58.2134H31.1821L29.6408 23.4223L26.1961 58.2134H5.32042ZM49.12 37.6291C49.3295 31.9737 50.9266 29.146 53.9114 29.146C56.4249 29.146 57.9435 31.9475 58.4672 37.5506L60.0381 55.1452H73.7839C74.9883 45.6671 75.5905 38.4669 75.5905 33.5446C75.5905 28.57 74.2552 24.5379 71.5846 21.4483C68.9663 18.3588 65.8244 16.814 62.1589 16.814C59.3312 16.814 56.7653 17.7043 54.4612 19.4847C54.035 19.8106 53.6028 20.1845 53.1646 20.6065C52.6876 21.0658 52.2034 21.5821 51.7121 22.1553C50.7695 23.2549 50.1673 24.0666 49.9055 24.5902L50.2197 17.9137H32.468L34.1175 55.1452H48.5702L49.12 37.6291ZM84.4958 28.1249L85.674 55.1452H100.127L101.305 28.1249H106.568L105.625 17.9137H100.834V16.8926C100.834 16.1311 100.889 15.4487 101 14.8455C101.367 12.8473 102.341 11.7168 103.922 11.454C104.162 11.4142 104.415 11.3943 104.682 11.3943C105.468 11.3943 106.253 11.499 107.039 11.7085L106.175 4.08937C103.976 3.40863 101.672 3.06826 99.2627 3.06826C93.8168 3.06826 89.9418 4.3512 87.6377 6.91708C85.386 9.4306 84.2602 13.0961 84.2602 17.9137H80.4899L79.5473 28.1249H84.4958ZM104.16 14.8455H106.895L106.248 14.6731C105.712 14.53 105.192 14.4625 104.682 14.4625C104.544 14.4625 104.45 14.475 104.394 14.4865C104.366 14.4922 104.347 14.4977 104.335 14.5016C104.332 14.5025 104.33 14.5033 104.328 14.5041C104.323 14.5093 104.317 14.5172 104.309 14.5284C104.272 14.5814 104.217 14.6819 104.16 14.8455ZM146.599 21.5269C142.829 18.385 137.776 16.814 131.44 16.814C125.103 16.814 120.024 18.385 116.201 21.5269C112.431 24.6164 110.546 29.5649 110.546 36.3723C110.546 43.1798 112.431 48.1545 116.201 51.2963C120.024 54.3859 125.103 55.9306 131.44 55.9306C137.776 55.9306 142.829 54.3859 146.599 51.2963C150.422 48.1545 152.333 43.1798 152.333 36.3723C152.333 29.5649 150.422 24.6164 146.599 21.5269ZM23.4166 55.1452H8.09989L3.38705 7.54546H28.1295L23.4166 55.1452ZM131.038 28.5047L131.034 28.5177C130.593 29.7669 130.266 32.2692 130.266 36.3723C130.266 40.4514 130.588 42.9951 131.038 44.3179C131.176 44.705 131.3 44.8702 131.347 44.9242C131.367 44.9267 131.397 44.9291 131.44 44.9291C131.482 44.9291 131.512 44.9267 131.532 44.9242C131.579 44.8702 131.703 44.705 131.841 44.318C132.291 42.9952 132.613 40.4515 132.613 36.3723C132.613 32.2692 132.286 29.7669 131.845 28.5177L131.841 28.5047L131.836 28.4916C131.69 28.0658 131.557 27.8808 131.503 27.8181C131.487 27.8167 131.466 27.8156 131.44 27.8156C131.413 27.8156 131.392 27.8167 131.376 27.8181C131.322 27.8808 131.189 28.0658 131.043 28.4916L131.038 28.5047ZM134.738 45.3268C134.11 47.1072 133.01 47.9974 131.44 47.9974C129.869 47.9974 128.769 47.1072 128.141 45.3268C127.512 43.494 127.198 40.5092 127.198 36.3723C127.198 32.2355 127.512 29.2769 128.141 27.4965C128.769 25.6637 129.869 24.7473 131.44 24.7473C133.01 24.7473 134.11 25.6637 134.738 27.4965C135.367 29.2769 135.681 32.2355 135.681 36.3723C135.681 40.5092 135.367 43.494 134.738 45.3268Z" fill="url(#paint0_linear_5_6)"/>
<path fill-rule="evenodd" clip-rule="evenodd" d="M205.684 10.6827L200.095 22.5261L197.433 21.4974C195.522 20.7593 193.363 20.3683 190.919 20.3683C187.648 20.3683 185.715 21.2973 184.526 22.6788C183.262 24.1485 182.362 26.6763 182.362 30.8102C182.362 34.6611 183.283 37.2665 184.75 39.0065C186.362 40.8025 188.111 41.5663 190.134 41.5663C192.733 41.5663 195.104 41.032 197.289 39.9833L199.961 38.7007L203.08 44.6611C202.225 41.9989 201.824 39.0101 201.824 35.7587C201.824 28.4154 203.87 22.4193 208.601 18.5414C213.111 14.8353 218.943 13.1321 225.786 13.1321C232.618 13.1321 238.429 14.8304 242.892 18.5416C245.574 20.7152 247.404 23.5564 248.495 26.9297C248.704 26.1318 248.95 25.3598 249.233 24.6147L249.243 24.5898L249.253 24.5651C250.438 21.6026 252.077 19.1303 254.297 17.3957L254.299 17.3938C257.905 14.5825 261.994 13.1321 266.476 13.1321C268.667 13.1321 270.75 13.5657 272.68 14.4642L272.169 0.485992H296.459L295.285 28.6975C295.878 26.5069 296.806 24.476 298.09 22.628C302.491 16.1903 309.299 13.1321 317.897 13.1321C324.209 13.1321 329.531 14.3945 333.419 17.3692C335.397 18.8555 336.876 20.6483 337.862 22.702L337.326 14.2318H358.176L359.082 16.5863C361.692 14.3624 364.777 13.1321 368.322 13.1321C370.783 13.1321 373.097 13.7375 375.204 14.9608L377 16.0036L374.094 35.8622L370.019 33.0096C368.453 31.9136 366.714 31.3649 364.709 31.3649C363.875 31.3649 363.413 31.5371 363.155 31.6953C362.924 31.8379 362.668 32.0844 362.439 32.6121C362.016 33.6767 361.757 34.6478 361.635 35.5314L359.93 57.5998H340.071L338.586 34.1414C337.771 36.4048 336.306 38.3707 334.237 39.9846L334.23 39.9899C333.805 40.3198 333.359 40.6247 332.894 40.9056L339.174 48.5015L337.525 50.4597C336.531 51.6399 335.373 52.731 334.069 53.7389L334.034 53.7662L333.997 53.7925C332.504 54.8786 330.359 55.8845 327.772 56.8546L327.745 56.8645L327.719 56.8739C324.84 57.8936 321.739 58.3852 318.447 58.3852C311.899 58.3852 306.197 56.4841 301.544 52.556L301.527 52.5421L301.511 52.528C297.776 49.2841 295.61 44.9483 294.825 39.7682L294.083 57.5998H276.988L276.359 55.1937C273.469 57.2345 270.139 58.3033 266.415 58.3067C260.96 58.3648 256.334 56.2724 252.764 52.1383C250.836 49.9055 249.485 47.2124 248.641 44.1311C247.571 47.7259 245.696 50.7497 242.894 53.053L242.89 53.0559C238.425 56.7147 232.615 58.3852 225.786 58.3852C218.953 58.3852 213.128 56.7138 208.619 53.069L208.601 53.0545L208.583 53.0398C207.64 52.2539 206.804 51.3845 206.069 50.4378L203.965 51.9795C198.088 56.2851 191.124 58.3852 183.222 58.3852C175.249 58.3852 168.471 56.0299 163.155 51.1326L163.149 51.1267L163.143 51.1209C157.752 46.0978 155.254 39.0347 155.254 30.4175C155.254 21.7756 157.711 14.7357 163.086 9.85099C168.325 5.03708 175.171 2.76387 183.3 2.76387C186.704 2.76387 190.287 3.37928 194.03 4.55186C197.819 5.7225 201.064 7.24459 203.669 9.18318L205.684 10.6827ZM193.119 7.48162C189.61 6.38196 186.337 5.83213 183.3 5.83213C175.76 5.83213 169.711 7.92672 165.156 12.1159C160.6 16.2527 158.322 22.3533 158.322 30.4175C158.322 38.4293 160.626 44.5822 165.234 48.8761C169.895 53.17 175.89 55.317 183.222 55.317C190.553 55.317 196.863 53.3795 202.151 49.5045L198.617 42.7494C195.999 44.0062 193.171 44.6345 190.134 44.6345C187.149 44.6345 184.583 43.4301 182.436 41.0214C180.342 38.5602 179.294 35.1565 179.294 30.8102C179.294 21.8034 183.169 17.3 190.919 17.3C193.695 17.3 196.234 17.7451 198.538 18.6353L201.837 11.6446C199.586 9.96896 196.679 8.58128 193.119 7.48162ZM275.518 51.9774C276.399 51.2489 277.234 50.3985 278.022 49.4259L279.357 54.5315H291.14L293.26 3.55425H275.352L275.98 20.7561L275.037 19.6565C274.57 19.0717 273.826 18.5015 272.807 17.9458C272.457 17.755 272.075 17.566 271.66 17.3786C270.089 16.5931 268.361 16.2004 266.476 16.2004C262.705 16.2004 259.275 17.4048 256.186 19.8136C254.51 21.1227 253.149 23.0864 252.101 25.7046C251.107 28.3229 250.609 31.4386 250.609 35.0518C250.609 41.6497 252.101 46.6768 255.086 50.1329C258.071 53.5889 261.841 55.2908 266.397 55.2384C269.849 55.2384 272.889 54.1514 275.518 51.9774ZM275.43 41.9639C274.645 43.6396 273.493 44.4774 271.974 44.4774C270.455 44.4774 269.303 43.9014 268.518 42.7494C267.732 41.5974 267.261 40.4977 267.104 39.4504C266.947 38.4031 266.868 37.3034 266.868 36.1514C266.868 29.8676 268.413 26.7257 271.503 26.7257C274.959 26.7257 276.687 29.8676 276.687 36.1514C276.687 38.2984 276.268 40.2359 275.43 41.9639ZM329.64 39.1194C330.086 38.9335 330.51 38.7296 330.912 38.5076C331.427 38.2232 331.907 37.9091 332.35 37.5653C334.968 35.523 336.277 32.8786 336.277 29.632C336.277 25.4428 334.706 22.17 331.564 19.8136C328.423 17.4048 323.867 16.2004 317.897 16.2004C310.095 16.2004 304.335 18.9234 300.617 24.3693C298.575 27.3017 297.553 30.8626 297.553 35.0518C297.553 41.7021 299.543 46.7553 303.523 50.2114C307.555 53.6151 312.53 55.317 318.447 55.317C321.432 55.317 324.181 54.8719 326.694 53.9817C329.208 53.0391 331.041 52.1489 332.193 51.3111C333.345 50.4209 334.34 49.4783 335.178 48.4834L330.308 42.5923C330.308 42.5924 330.308 42.5922 330.308 42.5923C330.182 42.7007 330.054 42.8063 329.925 42.9087C327.75 44.6353 325.154 45.4986 322.139 45.4986C320.201 45.4986 318.526 45.0535 317.112 44.1632C316.741 43.9065 316.411 43.6148 316.122 43.2882C315.753 42.8722 315.451 42.3996 315.215 41.8703C315.21 41.8593 315.205 41.8482 315.2 41.8372C314.949 41.2645 314.775 40.626 314.677 39.9217L315.541 40.0788C316.293 40.2244 317.091 40.3363 317.933 40.4144C318.908 40.5049 319.944 40.5501 321.039 40.5501C324.483 40.5501 327.35 40.0732 329.64 39.1194ZM358.582 35.2088C358.739 34.0045 359.08 32.7477 359.603 31.4386C360.494 29.344 362.195 28.2967 364.709 28.2967C366.188 28.2967 367.584 28.5307 368.896 28.9988C369.907 29.3592 370.867 29.8583 371.778 30.496L373.663 17.6142C372.04 16.6717 370.26 16.2004 368.322 16.2004C365.271 16.2004 362.585 17.3545 360.265 19.6627C359.479 20.4446 358.735 21.3589 358.032 22.4056L356.069 17.3H340.595L342.951 54.5315H357.09L358.582 35.2088ZM240.945 20.9132C237.175 17.7713 232.122 16.2004 225.786 16.2004C219.45 16.2004 214.37 17.7713 210.547 20.9132C206.777 24.0028 204.892 28.9512 204.892 35.7587C204.892 42.5661 206.777 47.5408 210.547 50.6827C214.37 53.7722 219.45 55.317 225.786 55.317C232.122 55.317 237.175 53.7722 240.945 50.6827C244.768 47.5408 246.679 42.5661 246.679 35.7587C246.679 28.9512 244.768 24.0028 240.945 20.9132ZM225.385 27.891L225.38 27.904C224.939 29.1532 224.612 31.6555 224.612 35.7587C224.612 39.8381 224.935 42.3818 225.384 43.7045C225.522 44.0914 225.646 44.2566 225.693 44.3105C225.713 44.313 225.743 44.3154 225.786 44.3154C225.828 44.3154 225.858 44.313 225.878 44.3105C225.925 44.2566 226.049 44.0914 226.187 43.7046C226.637 42.3819 226.959 39.8382 226.959 35.7587C226.959 31.6555 226.632 29.1532 226.191 27.904L226.187 27.891L226.182 27.8779C226.036 27.4522 225.903 27.2671 225.849 27.2044C225.833 27.203 225.812 27.2019 225.786 27.2019C225.759 27.2019 225.738 27.203 225.722 27.2044C225.669 27.2671 225.535 27.4522 225.389 27.8779L225.385 27.891ZM229.085 44.7131C228.456 46.4935 227.357 47.3837 225.786 47.3837C224.215 47.3837 223.115 46.4935 222.487 44.7131C221.858 42.8803 221.544 39.8955 221.544 35.7587C221.544 31.6218 221.858 28.6632 222.487 26.8828C223.115 25.05 224.215 24.1337 225.786 24.1337C227.357 24.1337 228.456 25.05 229.085 26.8828C229.713 28.6632 230.027 31.6218 230.027 35.7587C230.027 39.8955 229.713 42.8803 229.085 44.7131ZM272.66 40.6434L272.669 40.6253C273.282 39.3615 273.619 37.8899 273.619 36.1514C273.619 33.1903 273.194 31.4549 272.702 30.5608C272.482 30.16 272.29 30.0055 272.18 29.9388C272.076 29.8757 271.886 29.794 271.503 29.794C271.285 29.794 271.22 29.8386 271.199 29.8531L271.197 29.8545C271.156 29.882 270.99 30.0104 270.78 30.4359C270.32 31.3722 269.937 33.1624 269.937 36.1514C269.937 37.1642 270.006 38.1111 270.138 38.9953C270.209 39.4652 270.449 40.1347 271.053 41.0209C271.209 41.2504 271.363 41.4092 271.974 41.4092C272.068 41.4092 272.113 41.3967 272.126 41.3928C272.136 41.3895 272.149 41.3848 272.172 41.3676C272.223 41.3311 272.415 41.1669 272.652 40.6616L272.66 40.6434ZM321.58 28.6836L321.543 28.6516C321.489 28.6045 321.196 28.3801 320.254 28.3801C319.854 28.3801 319.266 28.5264 318.441 29.3426C318.429 29.356 318.416 29.3694 318.404 29.3828C318.568 29.3885 318.74 29.3914 318.918 29.3914C320.514 29.3914 321.282 29.1167 321.585 28.9323C321.65 28.8892 321.697 28.8529 321.73 28.8245C321.728 28.8219 321.726 28.8184 321.722 28.8143C321.709 28.7974 321.678 28.7628 321.618 28.7143L321.58 28.6836ZM323.238 31.5171C322.243 32.1455 320.803 32.4597 318.918 32.4597C317.086 32.4597 315.593 32.1979 314.441 31.6742C314.441 29.9462 315.043 28.4538 316.248 27.197C317.504 25.9403 318.84 25.3119 320.254 25.3119C321.667 25.3119 322.767 25.6522 323.553 26.333C324.39 27.0137 324.809 27.8778 324.809 28.9251C324.809 29.9724 324.286 30.8364 323.238 31.5171Z" fill="url(#paint1_linear_5_6)"/>
<defs>
<linearGradient id="paint0_linear_5_6" x1="82.4618" y1="105.855" x2="82.4618" y2="-76.7064" gradientUnits="userSpaceOnUse">
<stop stop-color="#E7E61A"/>
<stop offset="1" stop-color="#B03535"/>
</linearGradient>
<linearGradient id="paint1_linear_5_6" x1="272.921" y1="104.368" x2="272.921" y2="-74.7907" gradientUnits="userSpaceOnUse">
<stop stop-color="#E7E61A"/>
<stop offset="1" stop-color="#B03535"/>
</linearGradient>
</defs>
</svg>
