<svg width="50" height="50" viewBox="0 0 50 50" fill="none" xmlns="http://www.w3.org/2000/svg">
<path fill-rule="evenodd" clip-rule="evenodd" d="M25 0C38.8076 0 50 11.1924 50 25C50 38.8076 38.8076 50 25 50C11.1924 50 0 38.8076 0 25C0 11.1924 11.1924 0 25 0ZM28.5244 25.3271L23.0039 28.3545C22.7646 28.4844 22.5488 28.3105 22.5488 28.0381V21.8232C22.5488 21.5469 22.7715 21.373 23.0117 21.5098L28.5693 24.6973C28.8154 24.8369 28.7734 25.1924 28.5244 25.3271ZM37.2578 21.7568C37.2578 18.8086 34.8682 16.4199 31.9209 16.4199H18.0791C15.1318 16.4199 12.7422 18.8086 12.7422 21.7568V28.2432C12.7422 31.1914 15.1318 33.5801 18.0791 33.5801H31.9219C34.8682 33.5801 37.2578 31.1914 37.2578 28.2432V21.7568Z" fill="url(#paint0_linear_1_8)"/>
<defs>
<linearGradient id="paint0_linear_1_8" x1="25" y1="-33.5" x2="25" y2="50" gradientUnits="userSpaceOnUse">
<stop stop-color="#B03535"/>
<stop offset="1" stop-color="#E7E61A"/>
</linearGradient>
</defs>
</svg>
