<svg width="2500" height="2226" viewBox="0 0 2500 2226" fill="none" xmlns="http://www.w3.org/2000/svg">
<rect width="2500" height="2225.04" rx="250" fill="#222222"/>
<rect width="2500" height="2225.04" rx="250" fill="#222222"/>
<path d="M1175.79 376.437C1175.79 405.346 1168.94 431.213 1155.24 454.037C1143.06 476.861 1126.32 496.641 1105.01 513.379C1083.7 528.594 1060.1 541.528 1034.22 552.179C1008.35 562.83 983.228 570.438 958.872 575.002C955.828 746.941 948.978 912.793 938.322 1072.56C929.189 1232.32 913.966 1397.42 892.655 1567.83H906.355C930.711 1567.83 954.306 1570.88 977.139 1576.96C1001.5 1581.53 1022.81 1590.66 1041.07 1604.35C1060.86 1616.52 1076.08 1632.5 1086.74 1652.28C1098.92 1670.54 1105.01 1693.36 1105.01 1720.75C1105.01 1755.75 1093.59 1786.18 1070.76 1812.05C1049.45 1837.91 1020.52 1859.98 983.989 1878.23C948.978 1896.49 909.4 1911.71 865.255 1923.88C821.11 1936.05 776.965 1945.18 732.821 1951.27C688.676 1958.88 646.814 1964.2 607.236 1967.25C567.658 1970.29 535.691 1971.81 511.335 1971.81C493.068 1971.81 470.235 1971.05 442.835 1969.53C416.957 1968.01 391.84 1963.44 367.484 1955.83C344.651 1948.23 324.861 1936.82 308.117 1921.6C291.372 1906.38 283 1885.84 283 1859.98C283 1828.02 289.85 1799.87 303.55 1775.53C315.728 1749.66 332.473 1726.84 353.784 1707.06C375.095 1687.28 398.69 1671.3 424.568 1659.13C451.968 1646.95 479.368 1637.82 506.769 1631.74C517.424 1548.05 527.319 1465.13 536.452 1382.96C545.586 1299.27 551.675 1214.83 554.719 1129.62C557.763 1042.89 560.808 957.679 563.852 873.993C566.897 788.784 569.941 703.576 572.986 618.367C562.33 619.889 552.436 621.411 543.302 622.932C534.169 622.932 525.797 622.932 518.185 622.932C496.874 622.932 474.041 620.65 449.685 616.085C425.329 611.52 402.495 603.912 381.184 593.261C359.873 581.089 341.606 566.634 326.384 549.896C312.684 533.159 305.834 511.857 305.834 485.99C305.834 434.256 327.145 391.652 369.767 358.178C413.912 324.703 465.668 298.836 525.035 280.577C585.925 262.318 647.575 250.146 709.987 244.059C772.399 236.451 822.632 232.647 860.688 232.647C882 232.647 910.161 234.169 945.172 237.212C980.184 240.255 1014.43 247.102 1047.92 257.753C1082.93 268.404 1112.62 282.859 1136.97 301.118C1162.85 319.377 1175.79 344.483 1175.79 376.437Z" fill="#E7E61A"/>
<path d="M2217 764.439C2217 793.349 2213.19 823.781 2205.58 855.734C2199.49 887.687 2188.84 917.358 2173.62 944.746C2158.39 972.134 2138.6 994.958 2114.25 1013.22C2089.89 1031.48 2060.21 1040.61 2025.2 1040.61C1971.92 1040.61 1932.34 1031.48 1906.46 1013.22C1880.59 993.437 1862.32 969.091 1851.66 940.181C1841.01 911.271 1834.92 880.84 1833.4 848.887C1833.4 815.412 1832.64 784.219 1831.11 755.31C1829.59 726.4 1824.26 702.815 1815.13 684.556C1807.52 664.776 1790.01 654.885 1762.61 654.885C1732.17 654.885 1705.53 666.297 1682.7 689.121C1659.86 710.423 1640.07 738.572 1623.33 773.568C1606.58 808.565 1592.12 848.126 1579.94 892.252C1569.29 936.377 1560.16 980.503 1552.54 1024.63C1546.46 1067.23 1541.89 1108.32 1538.84 1147.88C1535.8 1185.92 1534.28 1217.11 1534.28 1241.45C1534.28 1273.41 1535.04 1311.45 1536.56 1355.57C1539.61 1399.7 1547.22 1442.3 1559.39 1483.38C1571.57 1522.95 1589.84 1557.18 1614.19 1586.09C1638.55 1613.48 1673.56 1627.17 1719.23 1627.17C1749.67 1627.17 1779.36 1623.37 1808.28 1615.76C1837.2 1608.15 1866.12 1599.79 1895.05 1590.66C1923.97 1580.01 1952.89 1570.88 1981.81 1563.27C2012.26 1555.66 2042.7 1551.86 2073.15 1551.86C2108.16 1551.86 2137.08 1566.31 2159.92 1595.22C2182.75 1622.61 2194.17 1653.8 2194.17 1688.8C2194.17 1737.49 2178.94 1783.14 2148.5 1825.74C2118.05 1866.82 2080 1903.34 2034.33 1935.29C1990.19 1967.25 1941.48 1992.35 1888.2 2010.61C1836.44 2028.87 1789.25 2038 1746.63 2038C1637.03 2038 1544.17 2012.89 1468.06 1962.68C1391.95 1913.99 1330.3 1850.85 1283.11 1773.25C1235.92 1694.12 1201.67 1606.63 1180.36 1510.77C1160.57 1413.39 1150.67 1316.77 1150.67 1220.91C1150.67 1157.01 1156.76 1087.01 1168.94 1010.93C1181.12 934.856 1199.39 858.777 1223.74 782.698C1248.1 705.097 1278.54 630.54 1315.08 559.026C1353.13 487.512 1397.28 424.366 1447.51 369.589C1497.74 314.813 1554.07 270.687 1616.48 237.212C1680.41 203.737 1750.43 187 1826.55 187C1901.14 187 1963.55 206.02 2013.78 244.059C2064.02 280.577 2104.35 327.746 2134.8 385.566C2165.24 441.864 2186.56 504.249 2198.73 572.72C2210.91 639.67 2217 703.576 2217 764.439Z" fill="#E7E61A"/>
</svg>
