<svg width="377" height="59" fill="none" xmlns="http://www.w3.org/2000/svg"><path fill-rule="evenodd" clip-rule="evenodd" d="M5.32 58.213L0 4.477h31.517L30.49 14.845h22.946l-.078 1.648c2.634-1.813 5.59-2.747 8.8-2.747 4.665 0 8.627 2.018 11.758 5.707a18.359 18.359 0 012.922 4.641l.854-9.249h3.652c.408-3.946 1.662-7.356 4.008-9.975l.003-.003C88.505 1.358 93.442 0 99.263 0c2.702 0 5.313.382 7.819 1.158l1.916.593 1.596 14.081-2.132-.569.959 10.39c1.1-2.552 2.692-4.742 4.834-6.498l.002-.001c4.509-3.706 10.341-5.408 17.183-5.408 6.832 0 12.643 1.698 17.106 5.41 4.78 3.873 6.855 9.868 6.855 17.216 0 7.362-2.082 13.373-6.854 17.295l-.003.003c-4.465 3.658-10.275 5.329-17.104 5.329-6.833 0-12.658-1.672-17.167-5.316l-.018-.015-.018-.014c-4.711-3.927-6.759-9.933-6.759-17.282 0-1.812.124-3.542.383-5.179h-3.619l-1.178 27.02H82.737l-1.179-27.02h-2.994c.064.768.095 1.552.095 2.352 0 5.121-.623 12.476-1.831 21.987l-.341 2.681H57.232l-1.82-20.377v-.006c-.249-2.653-.71-4.264-1.174-5.12-.167-.31-.296-.446-.35-.496-.223.004-.308.051-.344.073-.05.03-.2.14-.397.489-.44.777-.862 2.312-.96 4.958v.009l-.643 20.47H31.182l-1.541-34.79-3.445 34.79H5.32zm43.8-20.584c.21-5.655 1.807-8.483 4.791-8.483 2.514 0 4.032 2.802 4.556 8.405l1.571 17.594h13.746c1.204-9.478 1.806-16.678 1.806-21.6 0-4.975-1.335-9.007-4.005-12.097-2.619-3.09-5.76-4.634-9.426-4.634-2.828 0-5.394.89-7.698 2.67-.426.327-.858.7-1.296 1.122-.477.46-.962.976-1.453 1.55-.943 1.099-1.545 1.91-1.806 2.434l.314-6.676H32.468l1.65 37.231H48.57l.55-17.516zm35.376-9.504l1.178 27.02h14.453l1.178-27.02h5.263l-.943-10.211h-4.791v-1.021c0-.762.055-1.444.166-2.048.367-1.998 1.341-3.128 2.922-3.391.24-.04.493-.06.76-.06.786 0 1.571.105 2.357.315l-.864-7.62c-2.199-.68-4.503-1.02-6.912-1.02-5.446 0-9.321 1.282-11.625 3.848-2.252 2.514-3.378 6.18-3.378 10.997h-3.77l-.943 10.21h4.949zm19.664-13.28h2.735l-.647-.172a6.038 6.038 0 00-1.566-.21 1.46 1.46 0 00-.288.024.535.535 0 00-.059.015l-.007.002a.232.232 0 00-.019.024 1.344 1.344 0 00-.149.317zm42.439 6.682c-3.77-3.142-8.823-4.713-15.159-4.713-6.337 0-11.416 1.571-15.239 4.713-3.77 3.09-5.655 8.038-5.655 14.845 0 6.808 1.885 11.782 5.655 14.924 3.823 3.09 8.902 4.635 15.239 4.635 6.336 0 11.389-1.545 15.159-4.635 3.823-3.142 5.734-8.116 5.734-14.924 0-6.807-1.911-11.756-5.734-14.845zM23.417 55.145H8.1l-4.713-47.6H28.13l-4.712 47.6zm107.621-26.64l-.004.013c-.441 1.249-.768 3.751-.768 7.854 0 4.08.322 6.623.772 7.946.138.387.262.552.309.606a.754.754 0 00.185 0c.047-.054.171-.219.309-.606.45-1.323.772-3.866.772-7.946 0-4.103-.327-6.605-.768-7.854l-.004-.013-.005-.013c-.146-.426-.279-.611-.333-.674a.728.728 0 00-.127 0c-.054.063-.187.248-.333.674l-.005.013zm3.7 16.822c-.628 1.78-1.728 2.67-3.298 2.67-1.571 0-2.671-.89-3.299-2.67-.629-1.833-.943-4.818-.943-8.955 0-4.136.314-7.095.943-8.875.628-1.833 1.728-2.75 3.299-2.75 1.57 0 2.67.917 3.298 2.75.629 1.78.943 4.739.943 8.875 0 4.137-.314 7.122-.943 8.955z" fill="url(#paint0_linear_5_6)"/><path fill-rule="evenodd" clip-rule="evenodd" d="M205.684 10.683l-5.589 11.843-2.662-1.029c-1.911-.738-4.07-1.129-6.514-1.129-3.271 0-5.204.93-6.393 2.31-1.264 1.47-2.164 3.998-2.164 8.132 0 3.851.921 6.457 2.388 8.197 1.612 1.796 3.361 2.56 5.384 2.56 2.599 0 4.97-.535 7.155-1.584l2.672-1.282 3.119 5.96c-.855-2.662-1.256-5.65-1.256-8.902 0-7.344 2.046-13.34 6.777-17.218 4.51-3.706 10.342-5.409 17.185-5.409 6.832 0 12.643 1.698 17.106 5.41 2.682 2.173 4.512 5.014 5.603 8.388.209-.798.455-1.57.738-2.315l.01-.025.01-.025c1.185-2.962 2.824-5.435 5.044-7.17l.002-.001c3.606-2.811 7.695-4.262 12.177-4.262 2.191 0 4.274.434 6.204 1.332L272.169.486h24.29l-1.174 28.212a19.473 19.473 0 012.805-6.07c4.401-6.438 11.209-9.496 19.807-9.496 6.312 0 11.634 1.263 15.522 4.237 1.978 1.486 3.457 3.28 4.443 5.333l-.536-8.47h20.85l.906 2.354c2.61-2.224 5.695-3.454 9.24-3.454 2.461 0 4.775.606 6.882 1.829L377 16.004l-2.906 19.858-4.075-2.852c-1.566-1.096-3.305-1.645-5.31-1.645-.834 0-1.296.172-1.554.33-.231.143-.487.39-.716.917-.423 1.065-.682 2.036-.804 2.92L359.93 57.6h-19.859l-1.485-23.459c-.815 2.264-2.28 4.23-4.349 5.844l-.007.005c-.425.33-.871.635-1.336.916l6.28 7.596-1.649 1.958a22.417 22.417 0 01-3.456 3.279l-.035.027-.037.026c-1.493 1.087-3.638 2.093-6.225 3.063l-.027.01-.026.009c-2.879 1.02-5.98 1.511-9.272 1.511-6.548 0-12.25-1.9-16.903-5.829l-.017-.014-.016-.014c-3.735-3.244-5.901-7.58-6.686-12.76l-.742 17.832h-17.095l-.629-2.406c-2.89 2.04-6.22 3.11-9.944 3.113-5.455.058-10.081-2.035-13.651-6.169-1.928-2.232-3.279-4.926-4.123-8.007-1.07 3.595-2.945 6.619-5.747 8.922l-.004.003c-4.465 3.659-10.275 5.33-17.104 5.33-6.833 0-12.658-1.672-17.167-5.317l-.018-.015-.018-.014a16.747 16.747 0 01-2.514-2.602l-2.104 1.541c-5.877 4.306-12.841 6.406-20.743 6.406-7.973 0-14.751-2.355-20.067-7.252l-.006-.006-.006-.006c-5.391-5.023-7.889-12.086-7.889-20.704 0-8.641 2.457-15.681 7.832-20.566 5.239-4.814 12.085-7.087 20.214-7.087 3.404 0 6.987.615 10.73 1.788 3.789 1.17 7.034 2.693 9.639 4.631l2.015 1.5zm-12.565-3.201c-3.509-1.1-6.782-1.65-9.819-1.65-7.54 0-13.589 2.095-18.144 6.284-4.556 4.137-6.834 10.237-6.834 18.302 0 8.011 2.304 14.164 6.912 18.458 4.661 4.294 10.656 6.441 17.988 6.441 7.331 0 13.641-1.938 18.929-5.813l-3.534-6.755c-2.618 1.257-5.446 1.886-8.483 1.886-2.985 0-5.551-1.205-7.698-3.614-2.094-2.46-3.142-5.864-3.142-10.21 0-9.008 3.875-13.511 11.625-13.511 2.776 0 5.315.445 7.619 1.335l3.299-6.99c-2.251-1.676-5.158-3.064-8.718-4.163zm82.399 44.495a17.983 17.983 0 002.504-2.551l1.335 5.105h11.783l2.12-50.977h-17.908l.628 17.202-.943-1.1c-.467-.584-1.211-1.154-2.23-1.71-.35-.191-.732-.38-1.147-.567-1.571-.786-3.299-1.179-5.184-1.179-3.771 0-7.201 1.205-10.29 3.614-1.676 1.309-3.037 3.272-4.085 5.89-.994 2.619-1.492 5.735-1.492 9.348 0 6.598 1.492 11.625 4.477 15.08 2.985 3.457 6.755 5.159 11.311 5.106 3.452 0 6.492-1.087 9.121-3.26zm-.088-10.013c-.785 1.676-1.937 2.513-3.456 2.513s-2.671-.576-3.456-1.728c-.786-1.152-1.257-2.251-1.414-3.299a22.245 22.245 0 01-.236-3.299c0-6.283 1.545-9.425 4.635-9.425 3.456 0 5.184 3.142 5.184 9.425 0 2.147-.419 4.085-1.257 5.813zm54.21-2.845c.446-.185.87-.39 1.272-.611.515-.285.995-.599 1.438-.943 2.618-2.042 3.927-4.686 3.927-7.933 0-4.19-1.571-7.462-4.713-9.818-3.141-2.41-7.697-3.614-13.667-3.614-7.802 0-13.562 2.723-17.28 8.17-2.042 2.932-3.064 6.493-3.064 10.682 0 6.65 1.99 11.703 5.97 15.16 4.032 3.403 9.007 5.105 14.924 5.105 2.985 0 5.734-.445 8.247-1.335 2.514-.943 4.347-1.833 5.499-2.67a19.341 19.341 0 002.985-2.829l-4.87-5.89c-.126.108-.254.213-.383.316-2.175 1.726-4.771 2.59-7.786 2.59-1.938 0-3.613-.446-5.027-1.336a5.474 5.474 0 01-.99-.875 5.488 5.488 0 01-.907-1.418l-.015-.033a7.237 7.237 0 01-.523-1.915l.864.157c.752.145 1.55.257 2.392.335.975.09 2.011.136 3.106.136 3.444 0 6.311-.477 8.601-1.43zm28.942-3.91c.157-1.205.498-2.461 1.021-3.77.891-2.095 2.592-3.142 5.106-3.142 1.479 0 2.875.234 4.187.702 1.011.36 1.971.86 2.882 1.497l1.885-12.882c-1.623-.942-3.403-1.414-5.341-1.414-3.051 0-5.737 1.155-8.057 3.463a18.034 18.034 0 00-2.233 2.743l-1.963-5.106h-15.474l2.356 37.231h14.139l1.492-19.322zM240.945 20.913c-3.77-3.142-8.823-4.713-15.159-4.713s-11.416 1.571-15.239 4.713c-3.77 3.09-5.655 8.038-5.655 14.846 0 6.807 1.885 11.782 5.655 14.924 3.823 3.09 8.903 4.634 15.239 4.634s11.389-1.545 15.159-4.634c3.823-3.142 5.734-8.117 5.734-14.924 0-6.808-1.911-11.756-5.734-14.846zm-15.56 6.978l-.005.013c-.441 1.25-.768 3.752-.768 7.855 0 4.08.323 6.623.772 7.946.138.386.262.552.309.605a.754.754 0 00.185 0c.047-.053.171-.219.309-.605.45-1.323.772-3.867.772-7.946 0-4.104-.327-6.606-.768-7.855l-.004-.013-.005-.013c-.146-.426-.279-.61-.333-.674a.728.728 0 00-.127 0c-.053.063-.187.248-.333.674l-.004.013zm3.7 16.822c-.629 1.78-1.728 2.67-3.299 2.67s-2.671-.89-3.299-2.67c-.629-1.833-.943-4.818-.943-8.954 0-4.137.314-7.096.943-8.876.628-1.833 1.728-2.75 3.299-2.75s2.67.917 3.299 2.75c.628 1.78.942 4.739.942 8.876 0 4.136-.314 7.121-.942 8.954zm43.575-4.07l.009-.018c.613-1.264.95-2.735.95-4.474 0-2.96-.425-4.696-.917-5.59-.22-.401-.412-.555-.522-.622-.104-.063-.294-.145-.677-.145-.218 0-.283.045-.304.06h-.002c-.041.028-.207.156-.417.582-.46.936-.843 2.726-.843 5.715 0 1.013.069 1.96.201 2.844.071.47.311 1.14.915 2.026.156.23.31.388.921.388a.527.527 0 00.152-.016.145.145 0 00.046-.025c.051-.037.243-.201.48-.706l.008-.019zm48.92-11.96l-.037-.031c-.054-.047-.347-.272-1.289-.272-.4 0-.988.146-1.813.963l-.037.04c.164.006.336.008.514.008 1.596 0 2.364-.274 2.667-.459a1.73 1.73 0 00.145-.107c-.002-.003-.004-.007-.008-.01a.65.65 0 00-.104-.1l-.038-.031zm1.658 2.834c-.995.628-2.435.943-4.32.943-1.832 0-3.325-.262-4.477-.786 0-1.728.602-3.22 1.807-4.477 1.256-1.257 2.592-1.885 4.006-1.885 1.413 0 2.513.34 3.299 1.021.837.68 1.256 1.545 1.256 2.592 0 1.047-.523 1.911-1.571 2.592z" fill="url(#paint1_linear_5_6)"/><defs><linearGradient id="paint0_linear_5_6" x1="82.462" y1="105.855" x2="82.462" y2="-76.706" gradientUnits="userSpaceOnUse"><stop stop-color="#E7E61A"/><stop offset="1" stop-color="#B03535"/></linearGradient><linearGradient id="paint1_linear_5_6" x1="272.921" y1="104.368" x2="272.921" y2="-74.791" gradientUnits="userSpaceOnUse"><stop stop-color="#E7E61A"/><stop offset="1" stop-color="#B03535"/></linearGradient></defs></svg>