<svg width="50" height="50" fill="none" xmlns="http://www.w3.org/2000/svg"><path d="M25 .781C11.62.781.781 11.621.781 25c0 13.378 10.84 24.219 24.219 24.219 13.38 0 24.219-10.84 24.219-24.219C49.219 11.622 38.379.781 25 .781zm11.895 16.592L32.92 36.105c-.293 1.328-1.084 1.65-2.187 1.025l-6.055-4.463-2.92 2.813c-.322.322-.595.595-1.22.595l.43-6.163 11.22-10.137c.489-.43-.108-.673-.754-.244l-13.867 8.73-5.976-1.866c-1.299-.41-1.329-1.298.273-1.923l23.35-9.005c1.084-.39 2.031.264 1.68 1.905l.001.001z" fill="url(#paint0_linear_1_4)"/><defs><linearGradient id="paint0_linear_1_4" x1="25" y1="-34" x2="25" y2="49.219" gradientUnits="userSpaceOnUse"><stop stop-color="#B03535"/><stop offset="1" stop-color="#E7E61A"/></linearGradient></defs></svg>