<svg width="50" height="50" fill="none" xmlns="http://www.w3.org/2000/svg"><path fill-rule="evenodd" clip-rule="evenodd" d="M0 25C0 11.193 11.193 0 25 0s25 11.193 25 25-11.193 25-25 25S0 38.807 0 25zm26.308 8.204s.481-.052.727-.312c.226-.238.218-.688.218-.688s-.03-2.098.963-2.408c.978-.305 2.234 2.03 3.567 2.927 1.007.678 1.771.53 1.771.53l3.562-.049s1.863-.112.98-1.55c-.073-.118-.515-1.064-2.648-3.008-2.234-2.034-1.934-1.705.755-5.224 1.639-2.143 2.293-3.452 2.088-4.011-.194-.536-1.4-.393-1.4-.393l-4.008.024s-.298-.04-.518.09c-.215.126-.355.422-.355.422s-.634 1.658-1.48 3.069c-1.786 2.975-2.5 3.133-2.792 2.948-.679-.431-.51-1.73-.51-2.654 0-2.884.447-4.086-.867-4.397-.435-.104-.756-.172-1.871-.183-1.431-.014-2.642.005-3.328.334-.456.219-.808.708-.593.736.265.034.865.159 1.183.584.41.549.396 1.78.396 1.78s.237 3.396-.551 3.817c-.54.29-1.281-.3-2.874-3.001-.815-1.383-1.43-2.911-1.43-2.911s-.119-.286-.332-.44c-.256-.185-.615-.243-.615-.243l-3.81.025s-.573.015-.783.26c-.186.216-.014.665-.014.665s2.983 6.851 6.361 10.304c3.098 3.165 6.614 2.957 6.614 2.957h1.594z" fill="url(#paint0_linear_1_6)"/><defs><linearGradient id="paint0_linear_1_6" x1="25" y1="-34.5" x2="25" y2="50" gradientUnits="userSpaceOnUse"><stop stop-color="#B03535"/><stop offset="1" stop-color="#E7E61A"/></linearGradient></defs></svg>