<svg width="50" height="50" fill="none" xmlns="http://www.w3.org/2000/svg"><path fill-rule="evenodd" clip-rule="evenodd" d="M25 0c13.808 0 25 11.192 25 25S38.808 50 25 50 0 38.808 0 25 11.192 0 25 0zm3.524 25.327l-5.52 3.027c-.24.13-.455-.043-.455-.316v-6.215c0-.276.223-.45.463-.313l5.557 3.187c.246.14.204.495-.045.63zm8.734-3.57a5.337 5.337 0 00-5.337-5.337H18.079a5.337 5.337 0 00-5.337 5.337v6.486a5.337 5.337 0 005.337 5.337h13.843a5.336 5.336 0 005.336-5.337v-6.486z" fill="url(#paint0_linear_1_8)"/><defs><linearGradient id="paint0_linear_1_8" x1="25" y1="-33.5" x2="25" y2="50" gradientUnits="userSpaceOnUse"><stop stop-color="#B03535"/><stop offset="1" stop-color="#E7E61A"/></linearGradient></defs></svg>